# xmcd
#
# Track frame offsets:
#	150
#	27485
#	54715
#	82145
#	115295
#	147485
#	172595
#	198551
#	222685
#	246963
#
# Disc length: 3727 seconds
#
# Revision: 1
# Processed by: cddbd v1.5.2PL0 Copyright (c) Steve Scherf et al.
# Submitted via: EZCDAudioConverter 8.0.2.1
#
DISCID=9b0e8d0a
DTITLE=Họa Mi - Một Mai Em Đi
DYEAR=2010
DGENRE=Easy Listening
TTITLE0=Chiều một mình qua phố
TTITLE1=Nghìn trùng xa cách
TTITLE2=Bài ca tình cho em
TTITLE3=Xin thời gian qua mau
TTITLE4=Biển nhớ
TTITLE5=Tình khúc buồn
TTITLE6=Rồi mai tôi đưa em đi
TTITLE7=Một Mai Em Đi
TTITLE8=Hoài cảm
TTITLE9=Hẹn hò
EXTD=
EXTT0=
EXTT1=
EXTT2=
EXTT3=
EXTT4=
EXTT5=
EXTT6=
EXTT7=
EXTT8=
EXTT9=
PLAYORDER=
